<?xml version="1.0" encoding="utf-8"?>
<!-- Generator: Adobe Illustrator 24.0.1, SVG Export Plug-In . SVG Version: 6.00 Build 0)  -->
<svg version="1.1" id="Camada_1" xmlns="http://www.w3.org/2000/svg" xmlns:xlink="http://www.w3.org/1999/xlink" x="0px" y="0px"
	 viewBox="0 0 64 64" style="enable-background:new 0 0 64 64;" xml:space="preserve">
<style type="text/css">
	.st0{fill:url(#SVGID_1_);}
	.st1{fill:none;}
	.st2{fill:#FFFFFF;}
</style>
<linearGradient id="SVGID_1_" gradientUnits="userSpaceOnUse" x1="7.610584e-02" y1="33.95" x2="63.9761" y2="33.95" gradientTransform="matrix(1 0 0 -1 0 66)">
	<stop  offset="0" style="stop-color:#8257E5"/>
	<stop  offset="1" style="stop-color:#6C41D1"/>
</linearGradient>
<path class="st0" d="M53.6,64H10.4C4.6,64,0,59.4,0,53.6V10.5C0,4.7,4.6,0.1,10.4,0.1h43.3c5.6,0.1,10.3,4.7,10.3,10.4v43.2
	C63.9,59.4,59.3,64,53.6,64z"/>
<g>
	<path class="st1" d="M10.8,27H8.5v10.3l0,0h2.2c3.3,0,5.1-1.8,5.1-5C15.8,29,13.9,27,10.8,27z"/>
	<polygon class="st2" points="21.3,39.8 30.3,39.8 30.3,37.3 24.4,37.3 24.4,33.2 29.6,33.2 29.6,30.8 24.4,30.8 24.4,26.9 
		30.3,26.9 30.3,24.4 30.3,24.3 21.3,24.3 	"/>
	<path class="st2" d="M10.9,24.4H5.4v15.5h5.4c4.9,0,8.1-3.1,8.1-7.7C19,27.5,15.8,24.4,10.9,24.4z M10.8,37.2H8.5l0,0V27h2.2
		c3.3,0,5.1,1.9,5.1,5.1S13.9,37.2,10.8,37.2z"/>
	<polygon class="st2" points="33.1,39.8 42.1,39.8 42.1,37.3 36.2,37.3 36.2,33.2 41.4,33.2 41.4,30.8 36.2,30.8 36.2,26.9 
		42.1,26.9 42.1,24.4 42.1,24.3 33.1,24.3 	"/>
	<polygon class="st2" points="55.5,24.4 51.3,36.7 47,24.4 43.7,24.4 49.3,39.8 53.1,39.8 58.8,24.4 	"/>
</g>
</svg>
