<?xml version="1.0" encoding="utf-8"?>
<!-- Generator: Adobe Illustrator 24.0.1, SVG Export Plug-In . SVG Version: 6.00 Build 0)  -->
<svg version="1.1" id="Camada_1" xmlns="http://www.w3.org/2000/svg" xmlns:xlink="http://www.w3.org/1999/xlink" x="0px" y="0px"
	 viewBox="0 0 64 64" style="enable-background:new 0 0 64 64;" xml:space="preserve">
<style type="text/css">
	.st0{fill:url(#SVGID_1_);}
	.st1{fill:none;}
	.st2{fill:#FFFFFF;}
</style>
<linearGradient id="SVGID_1_" gradientUnits="userSpaceOnUse" x1="3.7016" y1="729.8328" x2="60.1079" y2="786.2391" gradientTransform="matrix(1 0 0 1 0 -726)">
	<stop  offset="0" style="stop-color:#303030"/>
	<stop  offset="1" style="stop-color:#202124"/>
</linearGradient>
<path class="st0" d="M53,63.1H10.8C5.2,63.1,0.7,58.6,0.7,53V10.9c0-5.6,4.5-10.1,10.1-10.1H53c5.5,0.1,10,4.6,10,10.1V53
	C63,58.6,58.5,63.1,53,63.1z"/>
<g>
	<path class="st1" d="M11.2,27H9v10l0,0h2.1c3.2,0,5-1.8,5-4.9S14.3,27,11.2,27z"/>
	<polygon class="st2" points="21.5,39.5 30.2,39.5 30.2,37.1 24.5,37.1 24.5,33.1 29.6,33.1 29.6,30.7 24.5,30.7 24.5,26.9 
		30.2,26.9 30.2,24.5 30.2,24.4 21.5,24.4 	"/>
	<path class="st2" d="M11.3,24.5H6v15.1h5.3c4.8,0,7.9-3,7.9-7.5C19.2,27.5,16.1,24.5,11.3,24.5z M11.2,37H9l0,0V27h2.1
		c3.2,0,5,1.9,5,5S14.3,37,11.2,37z"/>
	<polygon class="st2" points="33,39.5 41.7,39.5 41.7,37.1 36,37.1 36,33.1 41.1,33.1 41.1,30.7 36,30.7 36,26.9 41.7,26.9 
		41.7,24.5 41.7,24.4 33,24.4 	"/>
	<polygon class="st2" points="54.8,24.5 50.7,36.5 46.5,24.5 43.3,24.5 48.8,39.5 52.5,39.5 58,24.5 	"/>
</g>
</svg>
